<svg xmlns="http://www.w3.org/2000/svg" viewBox="0 0 64 64" fill="none">
  <defs>
    <linearGradient id="fabricStroke" x1="12" y1="48" x2="52" y2="16" gradientUnits="userSpaceOnUse">
      <stop stop-color="#7D756B"/>
      <stop offset=".62" stop-color="#D3B38A"/>
      <stop offset="1" stop-color="#FF7A18"/>
    </linearGradient>
  </defs>
  <path d="M15 20c7.4-4.7 12.3 4.7 19.5 0 5.1-3.3 9.1-2.6 14.5 1.7v25.7c-5.7-4.1-9.7-4.4-14.9-.9-7 4.8-12.2-4.5-19.1.1V20z" stroke="url(#fabricStroke)" stroke-width="3" stroke-linejoin="round"/>
  <path d="M22 21.5v23M31.7 23.2v23M41.5 20.4v23" stroke="#201813" stroke-opacity=".35" stroke-width="1.6" stroke-linecap="round"/>
  <path d="M17 29.5c6.4-3.3 10.7 4 16.9.3 5.1-3.1 8.8-2.4 13.1.9M17 38c6.4-3.3 10.7 4 16.9.3 5.1-3.1 8.8-2.4 13.1.9" stroke="#201813" stroke-opacity=".42" stroke-width="1.6" stroke-linecap="round"/>
</svg>
