<svg xmlns="http://www.w3.org/2000/svg" viewBox="0 0 64 64" fill="none">
  <defs>
    <linearGradient id="foamStroke" x1="13" y1="50" x2="51" y2="14" gradientUnits="userSpaceOnUse">
      <stop stop-color="#8B4A2B"/>
      <stop offset=".58" stop-color="#F3B366"/>
      <stop offset="1" stop-color="#FF7A18"/>
    </linearGradient>
  </defs>
  <path d="M18 35.5c0-8.8 6.6-16 14.7-16h.6c8.1 0 14.7 7.2 14.7 16S41.4 51 33.3 51h-.6C24.6 51 18 44.3 18 35.5z" stroke="url(#foamStroke)" stroke-width="3.2"/>
  <path d="M16.5 38.4c-3.2-1.2-5.5-4.4-5.5-8.1 0-4.7 3.7-8.5 8.2-8.5 2.7 0 5.1 1.4 6.6 3.5" stroke="#201813" stroke-opacity=".62" stroke-width="2.2" stroke-linecap="round"/>
  <path d="M48.2 38.4c3.2-1.2 5.5-4.4 5.5-8.1 0-4.7-3.7-8.5-8.2-8.5-2.7 0-5.1 1.4-6.6 3.5" stroke="#201813" stroke-opacity=".62" stroke-width="2.2" stroke-linecap="round"/>
  <path d="M27.2 34.7c1.6-2.1 5-2.1 6.5 0M31 41.3c1.8 1.1 4.3 1.1 6.1 0" stroke="#201813" stroke-opacity=".42" stroke-width="1.7" stroke-linecap="round"/>
</svg>
